<svg width="624" height="624" viewBox="0 0 624 624" fill="none" xmlns="http://www.w3.org/2000/svg">
<mask id="mask0" mask-type="alpha" maskUnits="userSpaceOnUse" x="0" y="0" width="624" height="624">
<rect x="624" width="624" height="624" transform="rotate(90 624 0)" fill="#C4C4C4"/>
</mask>
<g mask="url(#mask0)">
<path d="M519.459 268.139C520.699 267.718 522.187 267.627 523.097 267.456C525.165 267.444 527.482 267.761 529.799 268.078C535.76 269.778 539.571 272.069 542.061 275.36C543.971 278.572 545.384 281.125 545.14 282.862C545.14 282.862 545.389 283.191 545.058 283.441L559.368 282.447L558.342 268.734L569.678 269.989L570.45 281.307L585.339 280.392C584.836 277.667 584.5 275.851 584.414 274.364C584.328 272.877 584.16 271.969 584.074 270.482C583.825 270.153 584.155 269.903 584.816 269.403C585.146 269.153 585.725 269.232 585.563 270.39C585.898 272.207 586.152 274.602 586.574 277.905C587.326 280.958 588.327 284.341 590.074 288.71C591.822 293.08 594.81 297.029 597.798 300.978C601.116 304.677 603.438 307.06 604.932 309.035C605.181 309.364 605.181 309.364 605.43 309.693L605.348 310.272C601.629 311.534 599.317 313.283 597.833 315.44C596.679 317.348 596.186 318.756 596.354 319.664C596.603 319.993 596.273 320.243 596.522 320.572C596.938 321.809 599.174 322.705 603.31 322.68L603.559 323.01C603.478 323.589 603.478 323.589 602.899 323.509C595.206 323.638 589.824 322.017 587.335 318.726C585.592 316.422 584.179 313.869 584.255 311.224C584.088 310.316 584.25 309.158 584.332 308.579L571.842 309.232L572.781 321.457L561.445 320.202L560.759 310.372L536.028 312.007C530.982 312.202 526.927 311.647 524.026 309.185C521.124 306.723 519.712 304.17 519.209 301.446C519.204 299.38 519.529 297.064 519.854 294.748C520.51 292.182 521.084 290.195 521.989 287.958C522.482 286.55 523.635 284.643 524.789 282.735C525.942 280.827 526.267 278.512 526.262 276.445C526.176 274.958 525.429 273.971 524.352 273.234C523.275 272.496 521.867 272.009 520.709 271.851C520.129 271.771 519.22 271.942 518.64 271.863C515.663 272.046 513.432 273.216 512.029 274.795C510.546 276.952 509.311 279.439 508.904 282.334C508.579 284.65 508.503 287.295 508.426 289.94C508.345 290.519 508.594 290.848 508.513 291.427C508.685 294.401 509.27 296.546 509.356 298.033C509.529 301.007 510.113 303.153 510.118 305.219C510.453 307.035 511.368 308.93 512.862 310.905C513.858 312.221 515.763 313.367 517.999 314.262C519.986 314.829 521.724 315.067 523.792 315.054C524.122 314.805 524.371 315.134 524.701 314.884L524.539 316.042C523.629 316.212 522.719 316.383 521.81 316.554C517.923 316.907 513.949 315.774 510.138 313.483C507.155 311.6 504.833 309.217 503.172 306.334C501.51 303.452 500.758 300.398 500.336 297.095C500.336 297.095 500.088 296.766 500.418 296.516C500.077 292.634 500.977 288.331 502.126 284.357C503.604 280.134 506.16 276.648 509.463 274.149C513.178 270.821 516.069 269.151 519.459 268.139ZM544.733 285.757C544.24 287.165 543.087 289.072 541.521 291.809C539.707 294.216 538.554 296.124 538.142 296.953C536.658 299.11 536.333 301.426 536.338 303.492C536.257 304.071 536.424 304.98 536.673 305.309C537.425 308.362 539.331 309.508 542.309 309.325L586.146 306.171C587.543 302.527 590.018 299.62 593.321 297.121C587.366 297.487 579.591 298.194 570.079 298.664C560.236 299.383 552.792 299.841 546.836 300.207C546.501 298.391 546.745 296.654 546.659 295.167C546.821 294.009 546.405 292.772 546.237 291.864C545.983 289.468 545.399 287.323 544.733 285.757Z" fill="#ED1958"/>
<path d="M585.53 358.902L587.608 363.022L583.894 366.35C583.233 366.849 582.903 367.099 582.821 367.678C582.41 368.507 581.749 369.007 581.338 369.836C584.234 370.232 587.212 370.049 590.022 368.958L592.1 373.077L588.716 376.155C588.467 375.826 588.218 375.497 587.389 375.089C586.561 374.681 586.312 374.352 585.484 373.943C584.656 373.535 583.827 373.127 582.999 372.718C582.171 372.31 581.343 371.902 580.763 371.823C580.85 373.31 581.266 374.547 581.683 375.784C582.1 377.021 582.765 378.587 584.01 380.233L580.626 383.311L576.896 380.441L578.045 376.467L578.37 374.151C578.781 373.322 578.614 372.414 578.614 372.414C578.365 372.085 578.365 372.085 578.035 372.335C577.704 372.585 577.044 373.084 576.713 373.334C576.383 373.584 576.053 373.834 575.722 374.084C575.392 374.334 575.062 374.584 574.732 374.834L571.759 377.083L567.948 374.791L569.178 370.239C569.757 370.318 570.087 370.068 570.667 370.147C571.246 370.226 571.825 370.306 572.404 370.385C573.563 370.543 575.382 370.202 577.532 369.611C576.454 368.873 575.377 368.136 574.051 367.069L569.91 365.028L570.23 360.646L575.027 360.121C575.86 362.596 576.942 365.399 579.264 367.782C579.676 366.953 579.757 366.374 579.839 365.795C580.169 365.545 580.001 364.637 580.494 363.229C580.576 362.65 580.657 362.071 580.987 361.822C581.068 361.243 581.068 361.243 581.15 360.664L581.394 358.927L585.53 358.902Z" fill="#ED1958"/>
<path d="M514.436 379.572C515.432 380.888 516.097 382.454 516.514 383.691C517.179 385.258 518.506 386.324 520.99 387.549L554.863 402.802C552.723 407.525 552.073 412.157 552.083 416.289C552.093 420.421 552.931 424.961 554.1 429.252C551.203 428.856 548.886 428.539 546.406 429.38C545.167 429.801 544.176 430.551 543.845 430.801C543.764 431.38 543.683 431.959 543.932 432.288C544.43 432.946 545.756 434.012 547.91 435.487C547.91 435.487 548.159 435.816 547.829 436.066C547.748 436.645 547.748 436.645 547.168 436.566C547.168 436.566 546.919 436.237 546.589 436.487C541.04 433.958 537.641 430.837 536.97 427.205C536.635 425.389 537.128 423.981 537.621 422.573C538.032 421.744 538.444 420.916 539.105 420.416C540.919 418.008 543.729 416.917 547.616 416.564L518.962 404.09L507.809 409.941L511.472 419.588L510.232 420.009L501.406 396.674L513.053 389.414C513.384 389.164 514.044 388.665 514.125 388.086C514.207 387.507 514.288 386.928 514.7 386.099C514.944 384.362 514.359 382.217 513.277 379.413C513.526 379.742 513.856 379.492 514.436 379.572C514.187 379.242 514.187 379.242 514.436 379.572Z" fill="#ED1958"/>
<path d="M500.241 428.085C500.572 427.835 500.572 427.835 500.821 428.164C500.821 428.164 500.821 428.164 500.739 428.743C499.997 429.822 499.835 430.98 499.921 432.467C500.007 433.954 500.424 435.191 501.501 435.928L550.658 476.875L543.66 490.966L514.646 466.346L516.109 489.559L503.37 489.883C502.79 489.804 502.13 490.304 501.799 490.554C501.058 491.632 500.565 493.04 500.239 495.356L499.909 495.606C499.579 495.856 499.33 495.527 499.33 495.527C499.243 494.04 499.238 491.974 499.482 490.237C499.477 488.171 498.563 486.275 496.408 484.801C495.331 484.063 494.005 482.997 492.43 481.601L492.181 481.272C490.854 480.206 490.519 478.39 490.926 475.495C491.088 474.337 491.912 472.679 493.065 470.771C494.219 468.864 495.372 466.956 496.607 464.469C496.937 464.219 496.688 463.89 496.688 463.89C496.688 463.89 496.688 463.89 496.358 464.14C491.49 469.376 488.106 472.454 485.956 473.045C484.137 473.386 482.15 472.82 480.326 471.095L480.077 470.766C479.579 470.108 478.502 469.37 478.004 468.712C476.927 467.975 475.849 467.237 475.351 466.579L469.066 467.195L468.994 471.906L467.506 471.998L467.044 452.166L479.864 451.263L489.895 459.716C491.47 461.112 492.877 461.599 494.615 461.837C496.353 462.074 497.923 461.404 498.665 460.325L502.212 456.089L491.933 447.307C490.855 446.57 489.697 446.412 488.457 446.832C487.217 447.253 485.647 447.923 484.326 448.923C483.665 449.423 483.416 449.094 483.497 448.515C484.565 445.12 485.22 442.554 485.464 440.817C485.708 439.08 484.956 436.027 482.959 431.328C482.71 430.999 482.71 430.999 483.041 430.749C483.041 430.749 483.371 430.499 483.62 430.828C488.503 431.791 491.73 431.937 493.3 431.267C494.621 430.267 497.101 429.426 500.241 428.085ZM503.289 456.827L500.073 460.812C499 462.141 498.756 463.878 499.422 465.444C500.006 467.59 501.002 468.906 502.578 470.302L508.131 474.896L513.838 474.201L513.32 465.279L503.289 456.827Z" fill="#ED1958"/>
<path d="M417.275 499.651C417.692 500.888 418.108 502.126 418.525 503.363C419.109 505.508 419.114 507.574 419.038 510.219C418.962 512.864 417.727 515.351 416.492 517.837C415.257 520.324 413.524 522.152 411.542 523.652C411.131 524.481 410.14 525.23 409.728 526.059C408.737 526.809 408.326 527.638 407.005 528.637L410.597 542.996L419.444 540.96C420.683 540.539 421.674 539.79 422.335 539.29C423.077 538.211 423.321 536.474 422.818 533.75L423.727 533.579L425.983 542.739C426.4 543.976 426.075 546.292 425.419 548.858C424.514 551.095 421.872 553.094 417.573 554.276L413.274 555.459L416.033 567.343C417.603 566.673 419.422 566.331 420.662 565.911C421.902 565.49 423.391 565.399 424.219 565.807C425.957 566.044 427.365 566.532 428.691 567.598C429.768 568.336 430.683 570.231 431.765 573.035C432.095 572.785 432.014 573.364 432.014 573.364C432.182 574.272 432.598 575.509 432.685 576.996C432.771 578.483 433.106 580.299 433.772 581.865C434.021 582.195 433.691 582.444 433.691 582.444C433.691 582.444 433.691 582.444 433.36 582.694C432.781 582.615 432.781 582.615 432.532 582.286C432.283 581.957 432.364 581.378 432.364 581.378C432.115 581.049 431.866 580.72 431.536 580.97C430.708 580.561 429.468 580.982 427.649 581.323C427.069 581.244 426.409 581.744 425.499 581.915C423.02 582.756 420.54 583.597 418.39 584.188C417.15 584.609 415.911 585.029 414.091 585.371C414.091 585.371 413.761 585.621 413.512 585.292C412.272 585.712 410.783 585.804 409.544 586.224C408.055 586.316 406.317 586.078 405.489 585.67C403.913 584.274 402.918 582.958 402.582 581.142L399.742 569.837C397.105 573.902 393.888 577.888 391.251 581.953C388.364 585.689 385.397 590.004 382.759 594.069C382.429 594.319 382.099 594.569 381.519 594.49L373.399 589.249C372.322 588.512 371.824 587.854 371.824 587.854C371.575 587.525 371.657 586.946 371.408 586.616L369.233 576.878C366.265 581.193 363.049 585.179 360.411 589.244C357.444 593.559 354.476 597.874 351.839 601.939C351.508 602.189 351.178 602.439 350.599 602.36C349.191 601.872 347.367 600.148 345.126 597.186C342.885 594.224 339.572 592.591 335.517 592.036C334.938 591.957 334.689 591.628 335.101 590.799C336.752 589.55 337.494 588.471 338.236 587.392C338.978 586.313 339.141 585.156 338.805 583.339L329.198 544.554C329.279 543.975 328.862 542.738 328.695 541.83C328.278 540.593 328.11 539.685 327.612 539.027C326.616 537.71 325.788 537.302 324.879 537.473C323.969 537.643 323.059 537.814 322.978 538.393L321.494 540.551L320.087 540.063C322.312 536.827 323.959 533.511 325.605 530.196C327.252 526.88 328.898 523.565 331.124 520.329L331.454 520.079L331.785 519.829C334.021 520.724 336.175 522.199 338.66 523.424C340.814 524.899 342.14 525.965 342.557 527.203L356.26 583.07L360.071 585.362L362.297 582.125L350.011 530.877L347.374 534.942L345.967 534.455C348.192 531.218 350.169 527.653 352.806 523.588C355.444 519.523 357.421 515.957 359.646 512.721C359.977 512.471 360.556 512.55 360.886 512.3C364.286 515.421 368.015 518.291 372.487 520.082C373.315 520.491 374.392 521.228 375.8 521.716C376.877 522.453 378.036 522.611 379.194 522.77C380.104 522.599 380.022 523.178 379.032 523.928C378.701 524.178 378.041 524.677 377.05 525.427C376.059 526.177 375.815 527.914 376.069 530.309L380.164 547.392L385.952 546.118L380.769 524.165C379.682 519.296 379.672 515.164 381.649 511.598C383.295 508.283 385.607 506.534 388.666 505.772C390.816 505.18 392.884 505.168 395.201 505.485C397.518 505.802 399.505 506.368 402.071 507.014C403.809 507.252 405.217 507.739 406.954 507.977C408.113 508.135 409.602 508.044 410.511 507.873L410.842 507.623C414.231 506.611 415.715 504.454 415.293 501.151C415.375 500.572 415.126 500.243 414.958 499.334C414.125 496.86 413.21 494.965 411.305 493.819C409.399 492.673 406.503 492.277 403.195 492.71C399.887 493.143 396.579 493.576 393.52 494.338C392.94 494.259 392.28 494.759 391.7 494.679C388.972 495.192 386.162 496.283 383.682 497.124C381.202 497.965 379.22 499.464 377.569 500.714C376.497 502.042 375.673 503.7 375.267 506.595C374.941 508.911 375.028 510.398 375.363 512.214C375.612 512.543 375.282 512.793 375.531 513.122L374.372 512.964C374.205 512.056 373.707 511.398 373.539 510.49C373.204 508.673 373.117 507.186 373.031 505.699C373.107 503.054 373.514 500.159 374.998 498.002C376.563 495.265 378.707 492.608 381.929 490.688C384.571 488.689 387.381 487.598 389.531 487.007C389.861 486.757 390.44 486.836 390.44 486.836C394.409 485.903 398.545 485.879 402.27 486.683C405.995 487.487 409.059 488.791 411.96 491.253C413.952 493.886 415.944 496.519 417.275 499.651ZM408.072 525.243C407.741 525.493 407.493 525.163 407.162 525.413C405.922 525.834 404.433 525.925 402.696 525.688C400.958 525.45 398.722 524.554 396.486 523.659C393.422 522.355 390.775 522.288 387.716 523.05L387.385 523.3C384.326 524.062 383.173 525.969 383.925 529.023L394.62 572.677L398.99 566.783L390.8 532.618C392.619 532.277 394.438 531.935 396.008 531.265C396.918 531.094 398.158 530.673 399.067 530.503C401.547 529.661 403.697 529.07 405.348 527.821C406.009 527.321 407 526.571 408.072 525.243ZM358.375 534.381C358.457 533.802 357.959 533.144 357.13 532.736C356.302 532.327 355.474 531.919 354.646 531.511C352.989 530.694 352.161 530.286 351.582 530.207L357.181 553.396L362.719 551.793L358.375 534.381ZM389.127 559.239L383.009 560.763L386.601 575.121C387.435 577.596 388.431 578.912 389.838 579.4L393.136 574.835L389.127 559.239ZM366.144 565.243L360.356 566.517L363.532 579.639L367.902 573.745L366.144 565.243Z" fill="#ED1958"/>
<path d="M291.701 569.819C285.908 569.027 281.441 569.301 277.224 569.905C272.676 570.758 268.296 572.52 263.834 574.86L253.875 561.697C253.128 560.71 252.879 560.38 251.969 560.551C251.39 560.472 251.06 560.722 250.729 560.972C249.739 561.721 248.499 562.142 246.598 563.062C246.598 563.062 246.598 563.062 246.349 562.733C246.1 562.404 246.1 562.404 246.431 562.154C247.752 561.155 249.403 559.905 251.055 558.656C252.706 557.406 253.611 555.17 254.017 552.275L258.754 526.958L254.77 521.692L250.888 524.112L249.892 522.796L266.991 512.446L274.877 523.556L273.734 529.596L290.828 517.18L298.796 527.711L291.701 569.819ZM282.428 532.85L278.114 527.834L273.241 531.004L269.49 553.505L276.629 563.628L282.428 532.85Z" fill="#ED1958"/>
<path d="M238.796 517.738C239.045 518.067 239.045 518.067 239.045 518.067C239.045 518.067 238.714 518.317 238.465 517.988C237.307 517.829 236.148 517.671 234.659 517.762C233.42 518.183 232.429 518.933 231.687 520.011L201.796 577.295L186.73 573.17L204.434 539.595L182.03 545.678L179.023 533.465C179.104 532.886 178.276 532.478 178.027 532.148C177.198 531.74 175.461 531.503 173.062 531.765C173.062 531.765 173.062 531.765 172.813 531.436C172.564 531.107 172.894 530.857 172.894 530.857C174.714 530.515 176.284 529.845 178.103 529.503C179.922 529.162 181.574 527.913 182.808 525.426C183.55 524.347 184.374 522.689 184.948 520.703C184.948 520.703 184.948 520.703 185.278 520.453C186.101 518.795 187.672 518.124 190.649 517.941C191.808 518.1 193.546 518.337 195.532 518.904C197.519 519.471 199.755 520.367 202.321 521.012C202.57 521.342 202.9 521.092 202.9 521.092C202.9 521.092 202.9 521.092 202.651 520.763C196.356 517.246 192.626 514.376 192.042 512.231C191.127 510.335 191.701 508.349 192.606 506.112C192.606 506.112 192.936 505.862 192.687 505.533C193.099 504.704 193.511 503.875 193.922 503.046C194.664 501.967 195.157 500.56 195.569 499.731L193.734 493.874L189.436 495.057L189.019 493.819L207.871 489.906L212.037 502.277L205.944 514.132C205.121 515.789 204.877 517.526 204.964 519.013C205.299 520.829 206.046 521.817 207.123 522.554L212.093 525.004L218.186 513.15C218.928 512.071 218.511 510.834 218.094 509.597C217.429 508.03 216.682 507.043 215.355 505.977C214.858 505.318 215.188 505.068 215.767 505.148C219.573 505.373 221.641 505.361 223.709 505.348C225.198 505.257 228.339 503.916 232.632 500.667C232.963 500.417 232.963 500.417 232.963 500.417L233.212 500.746C233.389 505.787 233.811 509.09 234.807 510.406C235.64 512.881 237.134 514.855 238.796 517.738ZM211.269 526.662L206.549 524.541C204.892 523.724 203.403 523.816 201.752 525.065C199.851 525.986 198.449 527.564 197.626 529.222L194.414 535.274L196.33 540.552L204.927 538.187L211.269 526.662Z" fill="#ED1958"/>
<path d="M182.124 481.96C180.304 482.301 178.816 482.393 177.327 482.484C175.838 482.576 173.937 483.496 172.205 485.325L146.624 511.923C142.396 508.394 138.667 505.524 135.186 502.983C131.705 500.441 127.483 498.979 122.848 498.345L127.509 475.673L153.088 482.711L158.947 476.726L156.102 463.355L144.359 464.995L144.273 463.508L170.569 459.137L173.831 473.745C173.999 474.653 174.664 476.219 175.828 478.444C176.077 478.773 176.575 479.431 176.824 479.76C178.15 480.827 179.557 481.314 181.956 481.052C181.956 481.052 181.956 481.052 182.205 481.381C182.124 481.96 182.124 481.96 182.124 481.96ZM136.751 500.246L151.935 484.619L142.001 481.786L136.751 500.246Z" fill="#ED1958"/>
<path d="M109.78 465.283L90.9024 458.867L94.5106 445.788L124.995 428.417L126.057 422.956L117.281 420.281L94.8108 433.142C93.8199 433.891 92.829 434.641 92.3361 436.049C91.8431 437.457 91.5992 439.194 92.0158 440.431C92.0158 440.431 92.0158 440.431 91.6855 440.681C91.3552 440.93 91.3552 440.931 91.1062 440.601L76.7869 437.464L76.2076 437.384C76.2076 437.384 75.9587 437.055 76.289 436.805L79.2416 426.292C79.6532 425.463 79.4855 424.555 78.7386 423.568C77.7427 422.252 76.4165 421.185 74.262 419.71C74.262 419.71 74.5923 419.46 74.9226 419.211C75.2529 418.961 75.2529 418.961 75.2529 418.961C76.9094 419.777 78.3169 420.265 80.3038 420.831C82.2906 421.398 83.7794 421.307 84.7703 420.557L111.372 405.606L112.597 398.987L108.623 397.853L109.116 396.446L128.156 401.704L125.046 415.441L119.263 418.781L141.616 425.673L138.501 437.344C138.338 438.502 138.257 439.081 138.506 439.41C138.755 439.739 139.004 440.069 139.583 440.148C140.66 440.885 141.737 441.623 143.394 442.439C143.394 442.439 143.643 442.768 143.313 443.018C142.982 443.268 142.982 443.268 142.982 443.268C141.575 442.781 139.918 441.964 138.262 441.147C136.605 440.331 134.786 440.672 132.225 442.092L107.524 456.123L105.222 462.005L110.273 463.875L109.78 465.283Z" fill="#ED1958"/>
<path d="M71.4626 391.297L55.553 380.565L62.5556 368.541L69.2529 367.096L50.193 353.573L56.2096 344.364C56.5399 344.114 56.6212 343.535 56.3723 343.206C56.1233 342.877 56.2046 342.298 55.3763 341.89C54.2991 341.152 53.3032 339.836 51.977 338.769C51.977 338.769 51.728 338.44 52.0583 338.19L52.3886 337.941C53.7148 339.007 55.041 340.073 56.3672 341.14C57.6935 342.206 59.7616 342.194 62.4903 341.682L93.4973 335.299C94.4169 339.261 96.5764 342.802 99.8944 346.501C101.719 348.225 103.543 349.95 105.779 350.846C107.684 351.992 109.92 352.887 112.486 353.533C111.332 355.441 110.509 357.099 109.686 358.756L126.968 355.513L135.357 369.347L104.35 375.73C104.187 376.888 104.025 378.046 104.441 379.283C104.609 380.191 105.107 380.849 105.605 381.507C106.352 382.495 107.841 382.403 109.909 382.391C110.239 382.141 110.488 382.47 110.407 383.049C110.656 383.378 110.325 383.628 110.325 383.628C106.108 384.232 102.881 384.086 100.645 383.19C98.4096 382.294 96.9157 380.319 95.8335 377.516L72.7637 382.033L69.3031 387.756L72.5348 389.968L71.4626 391.297ZM93.5625 362.158C93.7252 361 94.1368 360.171 94.2994 359.013C94.7924 357.605 95.2853 356.197 96.1086 354.54C96.9318 352.882 98.004 351.553 98.8272 349.895L66.9107 356.449L63.8617 361.343L71.4024 366.505L93.5625 362.158Z" fill="#ED1958"/>
<path d="M108.652 273.64C108.073 273.561 107.824 273.232 107.494 273.482C102.692 271.94 99.0437 268.491 96.7978 263.463C94.303 258.106 93.8764 252.737 95.5178 247.355C95.5991 246.776 95.6804 246.197 96.0107 245.948C97.3269 242.882 99.2224 239.895 101.946 237.317L80.3351 229.347C79.7608 231.334 79.5169 233.071 79.8522 234.887C80.4415 239.098 82.5197 243.218 86.915 247.654C87.4129 248.313 87.0826 248.563 86.7523 248.812C86.0917 249.312 85.1822 249.483 83.363 249.824C81.7928 250.495 79.9737 250.836 78.4035 251.507C76.8333 252.177 75.5121 253.177 74.8515 253.677C74.5212 253.926 74.4399 254.505 74.1096 254.755C73.6167 256.163 73.703 257.65 74.2873 259.795C74.5363 260.125 74.206 260.374 73.8757 260.624C73.5454 260.874 73.2964 260.545 73.3777 259.966C72.6258 256.913 71.7925 254.438 70.8779 252.543C69.9633 250.648 67.8088 249.173 64.9937 248.198L50.6694 242.994C50.0951 244.981 49.7699 247.297 48.8653 249.534C48.8653 249.534 48.535 249.784 48.286 249.454C48.037 249.125 48.037 249.125 47.7881 248.796C48.525 245.651 48.9316 242.756 49.6685 239.612C50.0751 236.717 50.4817 233.822 50.2277 231.427C50.3853 228.203 49.6333 225.149 48.6324 221.767C47.6314 218.385 46.0512 214.923 44.222 211.132C43.9731 210.803 43.7241 210.474 44.0544 210.224C44.0544 210.224 44.3847 209.974 44.715 209.724C48.8513 209.7 51.9103 208.938 54.2224 207.189C55.8739 205.939 56.9461 204.61 57.7693 202.953C57.8506 202.374 57.9319 201.795 58.0133 201.216C58.1709 197.992 56.428 195.688 53.115 194.055C53.115 194.055 52.866 193.726 53.1963 193.476C53.5266 193.226 53.5266 193.226 53.8569 192.976C58.6588 194.518 62.0582 197.638 64.4667 201.508C66.5448 205.628 67.5458 209.01 67.0579 212.484C66.8952 213.642 66.7326 214.8 65.9907 215.879C65.4977 217.287 64.6745 218.944 63.6023 220.273L80.1624 226.373C80.2437 225.794 80.4064 224.636 80.4877 224.057C80.813 221.741 80.559 219.346 79.4767 216.542C78.3944 213.739 76.7329 210.856 73.6638 207.486C73.1659 206.828 73.4962 206.578 73.8265 206.328C74.7361 206.157 75.9759 205.737 77.7951 205.395C79.6142 205.054 81.7637 204.463 83.3339 203.792C83.9945 203.293 84.5738 203.372 85.4833 203.201C86.0626 203.28 86.7232 202.78 87.1348 201.952C87.4651 201.702 87.5464 201.123 87.8767 200.873C88.3697 199.465 88.3647 197.399 87.7804 195.254C87.7804 195.254 87.8617 194.675 88.441 194.754L88.7713 194.504L89.0202 194.833C89.1929 197.807 90.3565 200.032 91.5201 202.256C93.014 204.231 94.8381 205.955 97.9835 206.68L115.123 212.859C115.535 212.03 115.616 211.451 116.027 210.623C116.52 209.215 117.344 207.557 117.837 206.149L118.665 206.557C118.665 206.557 118.335 206.807 118.584 207.136C116.2 213.597 115.306 219.965 115.9 226.243C116.494 232.52 118.578 238.706 121.982 243.892C120.412 244.563 118.76 245.812 117.19 246.483C115.539 247.732 113.968 248.403 112.566 249.981C111.163 251.56 109.761 253.138 108.277 255.296C107.865 256.125 107.454 256.954 106.712 258.032C106.219 259.44 105.726 260.848 105.812 262.335C105.573 266.138 106.656 268.942 109.059 270.745C109.887 271.154 110.716 271.562 111.544 271.97C112.372 272.379 113.531 272.537 114.11 272.616C115.848 272.854 117.667 272.512 118.658 271.763C120.558 270.842 122.372 268.435 124.598 265.199C126.824 261.962 128.47 258.647 129.949 254.423C129.949 254.423 129.949 254.423 130.28 254.173C131.265 251.358 132.251 248.542 132.409 245.318C132.816 242.423 132.973 239.199 132.719 236.804C132.465 234.409 131.8 232.842 129.975 231.118C128.4 229.722 125.997 227.918 123.263 226.364L123.924 225.865C126.159 226.76 128.563 228.564 130.966 230.368C133.37 232.172 135.362 234.805 136.444 237.608C139.188 243.294 139.284 248.913 137.231 255.124C136.901 255.374 137.15 255.703 136.819 255.953C130.157 271.86 120.822 277.37 108.652 273.64ZM104.009 235.239C105.991 233.74 108.552 232.319 111.032 231.478L88.0133 223.02C86.6057 222.533 85.1169 222.624 83.7957 223.624C82.8048 224.374 81.7326 225.702 81.2397 227.11L104.009 235.239ZM73.6428 232.858C75.0503 233.345 75.9599 233.174 77.2811 232.175C78.023 231.096 78.4346 230.267 78.8462 229.438L78.9276 228.859L61.2089 222.601C58.8968 224.35 56.3357 225.771 53.358 225.954L73.6428 232.858Z" fill="#ED1958"/>
<path d="M98.5636 173.124L91.6023 168.041L96.3841 161.319L81.9634 150.496L85.9782 134.522L105.785 149.032L110.897 142.059L117.859 147.142L112.746 154.114L140.841 174.773L145.638 174.249L143.966 167.234L145.455 167.143L150.058 189.016L137.492 192.313C136.582 192.484 135.922 192.984 135.84 193.563C135.759 194.142 135.596 195.3 135.352 197.037L135.022 197.287C134.692 197.537 134.443 197.207 134.443 197.207C134.356 195.72 133.772 193.575 133.518 191.18C133.264 188.785 131.77 186.81 129.367 185.006L103.676 166.151L98.5636 173.124Z" fill="#ED1958"/>
<path d="M134.353 126.383C138.398 122.805 141.615 118.819 143.84 115.583C146.148 111.768 147.708 106.965 148.689 102.084L165.071 103.143C166.23 103.301 166.89 102.802 167.22 102.552C167.551 102.302 167.881 102.052 167.962 101.473C168.125 100.315 168.618 98.9072 169.192 96.9203L169.523 96.6704C169.772 96.9995 170.102 96.7496 169.772 96.9995C169.528 98.7365 169.284 100.473 169.538 102.869C169.543 104.935 170.706 107.159 172.449 109.463L188.546 129.367L195 129.659L195.65 125.027L197.058 125.514L193.714 145.121L180.309 143.878L176.244 139.192L174.475 160.193L160.74 159.201L134.353 126.383ZM167.981 143.373L174.435 143.665L174.918 138.125L160.563 120.525L148.317 119.441L167.981 143.373Z" fill="#ED1958"/>
<path d="M193.736 86.1136L201.552 68.2989L214.718 73.3445L217.05 79.8594L227.091 58.8083L238.687 64.5243C239.266 64.6035 239.845 64.6828 240.425 64.762C241.664 64.3414 242.737 63.0127 244.139 61.4342C244.139 61.4342 244.47 61.1843 244.718 61.5133C244.967 61.8424 244.967 61.8425 244.967 61.8425C244.144 63.5002 243.321 65.158 242.249 66.4866C241.426 68.1444 241.431 70.2104 242.264 72.6848L252.004 97.9156L258.463 100.274L260.521 96.1294L261.928 96.6169L252.954 114.273L240.118 108.978L227.131 75.3367L221.831 73.1369L217.715 81.4256L227.039 105.419C227.456 106.656 228.533 107.394 229.691 107.552C231.099 108.04 232.588 107.948 234.077 107.857L234.326 108.186C234.575 108.515 234.575 108.515 234.244 108.765C231.521 111.343 229.788 113.171 229.295 114.579C228.223 115.908 227.486 119.053 226.754 124.264C226.754 124.264 226.673 124.843 226.424 124.513L225.844 124.434C221.866 121.235 219.132 119.681 217.724 119.193C215.987 118.956 213.669 118.639 209.863 118.414C209.284 118.335 209.035 118.005 209.365 117.756C210.356 117.006 211.347 116.256 211.84 114.848C212.333 113.44 212.496 112.282 212.079 111.045L202.42 85.2355L195.962 82.8773L194.564 86.5219L193.736 86.1136Z" fill="#ED1958"/>
<path d="M274.587 96.8719C275.659 95.5432 276.65 94.7935 277.641 94.0439C278.631 93.2942 278.875 91.5572 278.952 88.9122L276.976 58.8419L292.195 57.6771L294.084 86.2602L305.939 96.4375L303.709 63.9721L274.044 43.9836L272.094 24.2436L312.612 51.0268C315.595 52.9099 317.5 54.0555 318.329 54.4638C318.329 54.4638 318.329 54.4638 318.908 54.543C319.817 54.3723 321.388 53.7019 324.03 51.7027C324.03 51.7027 324.36 51.4528 324.609 51.7819L324.858 52.111C323.786 53.4396 322.465 54.4392 321.144 55.4388C319.822 56.4384 319.248 58.4252 319.421 61.3993L321.737 95.3518C319.008 95.8639 316.361 95.797 314.211 96.3883C311.813 96.6505 309.664 97.2417 307.763 98.1621C305.863 99.0825 303.632 100.253 301.65 101.752C299.419 102.922 297.686 104.751 295.954 106.579L287.249 99.1932C285.923 98.1267 284.846 97.3893 284.099 96.4021C283.352 95.4148 282.193 95.2564 281.365 94.8481C279.876 94.9396 278.306 95.6101 276.655 96.8596C276.655 96.8596 276.655 96.8596 276.406 96.5305C274.505 97.4509 274.256 97.1218 274.587 96.8719C274.256 97.1218 274.256 97.1218 274.587 96.8719Z" fill="#ED1958"/>
<path d="M353.323 55.4129C358.786 56.4548 363.501 56.5094 367.389 56.1557C372.185 55.6313 376.566 53.8698 380.946 52.1082L390.244 65.7716C390.991 66.7589 391.24 67.088 392.069 67.4963C392.648 67.5755 392.978 67.3256 393.309 67.0757C394.548 66.6551 395.539 65.9054 397.358 65.564C397.358 65.564 397.358 65.564 397.607 65.8931C397.856 66.2222 397.856 66.2222 397.526 66.4721C395.956 67.1426 394.304 68.392 392.653 69.6415C391.001 70.891 389.518 73.0485 389.111 75.9434L382.967 100.773L386.62 106.288L390.751 104.198L391.417 105.764L373.901 114.876L366.676 103.266L368.068 97.5558L350.227 108.984L342.671 97.6242L353.323 55.4129ZM360.197 92.644L364.181 97.9095L369.054 94.7401L374.212 72.7264L367.734 62.104L360.197 92.644Z" fill="#ED1958"/>
<path d="M419.478 78.325L437.583 73.424L441.749 85.7956L438.949 91.0188L457.466 85.2889C458.127 84.7891 458.376 85.1182 458.955 85.1974C459.204 85.5265 459.204 85.5265 459.123 86.1055C459.041 86.6845 458.96 87.2635 458.797 88.4214C458.635 89.5794 458.802 90.4875 458.64 91.6455C458.726 93.1325 458.894 94.0406 459.31 95.2777C459.559 95.6068 459.808 95.9359 460.057 96.265C460.306 96.5941 461.216 96.4234 461.795 96.5026C462.705 96.3319 463.447 95.2531 464.93 93.0956C464.93 93.0956 465.261 92.8457 465.51 93.1748C465.759 93.5039 465.759 93.5039 465.759 93.5039L465.428 93.7538C463.863 96.4903 461.8 98.5687 459.488 100.318C457.176 102.067 454.945 103.237 452.877 103.25C450.479 103.512 448.492 102.945 445.758 101.391C445.509 101.062 445.179 101.312 444.93 100.983C442.196 99.4291 440.865 96.2966 441.434 92.2437L437.465 93.1764L425.025 114.49L430.183 126.112L439.771 122.997L440.188 124.234L416.63 132.225L410.31 118.379C410.142 117.471 408.816 116.404 408.069 115.417C407.82 115.088 407.82 115.088 407.571 114.759C406.494 114.021 404.425 114.034 401.946 114.875L401.697 114.546C401.448 114.217 401.778 113.967 401.778 113.967C403.348 113.296 404.918 112.626 406.158 112.205C407.647 112.114 409.05 110.535 410.533 108.378L424.539 84.3278L423.035 78.2212L419.315 79.4829L419.478 78.325Z" fill="#ED1958"/>
<path d="M501.051 171.485C502.459 171.973 504.197 172.21 506.265 172.198C508.003 172.436 510.482 171.595 512.464 170.095L524.772 162.336C526.514 164.64 528.339 166.365 529.832 168.339C531.326 170.314 532.901 171.709 535.056 173.184C538.537 175.725 543.339 177.267 549.213 177.48C549.462 177.809 549.792 177.559 549.792 177.559C549.792 177.559 550.041 177.888 549.711 178.138C547.734 181.703 546.997 184.848 547.749 187.902C547.917 188.81 548.414 189.468 548.582 190.376C549.578 191.692 550.574 193.009 552.231 193.825L555.127 194.221L554.964 195.379L535.929 192.187L534.949 197.068C534.542 199.963 533.968 201.95 534.135 202.858C534.054 203.437 534.054 203.437 534.303 203.766C534.801 204.424 536.127 205.491 538.033 206.637L538.282 206.966L537.951 207.216C536.544 206.728 534.806 206.49 533.068 206.253C531.33 206.015 529.181 206.607 526.869 208.356C524.308 209.776 522.656 211.025 521.996 211.525C521.335 212.025 518.774 213.445 514.561 216.115C512.488 214.061 510.994 212.087 509.5 210.112C508.007 208.137 506.431 206.742 504.277 205.267C502.702 203.872 501.045 203.055 498.809 202.159C496.823 201.593 494.587 200.697 491.609 200.88L491.36 200.551L491.111 200.222C493.169 196.077 494.155 193.261 493.652 190.537C493.236 189.3 493.068 188.392 492.651 187.155C491.904 186.168 491.406 185.509 490.329 184.772L485.116 184.059L485.278 182.901L503.485 185.686L504.715 181.133C505.121 178.238 505.365 176.501 504.949 175.264C504.7 174.935 504.7 174.935 504.451 174.606C503.704 173.618 502.377 172.552 500.142 171.656L499.893 171.327C500.721 171.735 501.051 171.485 501.051 171.485ZM519.695 183.771L518.714 188.653L542.134 192.15C539.649 190.925 538.074 189.529 537.408 187.963L537.159 187.634C536.245 185.739 535.33 183.843 534.995 182.027C534.41 179.882 534.156 177.487 534.314 174.263L519.695 183.771ZM501.503 187.185C503.409 188.331 504.735 189.397 505.98 191.042L506.229 191.372C508.388 194.912 508.068 199.294 505.268 204.517C507.829 203.097 509.48 201.848 510.802 200.848C511.792 200.099 513.032 199.678 514.023 198.928C514.684 198.429 515.675 197.679 516.584 197.508C517.245 197.008 518.566 196.009 520.467 195.088L521.447 190.207L501.503 187.185Z" fill="#ED1958"/>
<path d="M445.349 134.48C447.056 134.51 448.256 134.831 449.457 135.153C450.657 135.475 452.177 134.6 454.312 133.036L476.83 113.009L487.095 124.304L465.698 143.35L464.947 158.956L489.199 137.258L486.755 101.571L501.136 87.9078L504.883 136.333C505.229 139.844 505.495 142.051 505.681 142.956C505.681 142.956 505.681 142.956 505.975 143.461C506.668 144.074 508.161 144.902 511.362 145.759C511.362 145.759 511.762 145.867 511.655 146.265L511.548 146.664C509.841 146.634 508.241 146.205 506.641 145.776C505.041 145.347 503.12 146.114 500.879 148.077L475.506 170.757C473.426 168.918 471.853 166.787 470.066 165.454C468.386 163.722 466.6 162.389 464.706 161.455C462.813 160.52 460.519 159.478 458.119 158.835C455.825 157.793 453.318 157.549 450.811 157.304L451.294 145.899C451.321 144.197 451.242 142.894 451.562 141.698C451.882 140.502 451.296 139.491 451.109 138.586C450.123 137.468 448.629 136.64 446.629 136.104C446.629 136.104 446.629 136.104 446.736 135.706C444.842 134.771 444.949 134.372 445.349 134.48C444.949 134.372 444.949 134.372 445.349 134.48Z" fill="#ED1958"/>
</g>
</svg>
