<svg width="137" height="99" viewBox="0 0 137 99" fill="none" xmlns="http://www.w3.org/2000/svg">
<g clip-path="url(#clip0)">
<path d="M33.498 15.0327C33.498 15.0327 41.4431 -1.50307 54.5419 2.57719C63.7754 5.36895 65.9228 9.01971 73.2237 4.72469C76.6594 2.57719 86.5372 -5.58333 106.507 10.0935C125.619 25.126 136.785 37.152 136.57 44.024C135.926 59.9156 119.177 100.933 69.788 98.7854C42.9463 97.4969 25.7676 66.5729 25.7676 66.5729" stroke="black" stroke-width="0.5" stroke-linecap="round" stroke-linejoin="round"/>
<path d="M109.728 39.0845C109.728 39.0845 100.28 57.1236 65.708 35.6485C43.8052 22.1192 25.3381 6.44244 12.8835 9.01945C3.64999 10.9522 -3.65095 26.629 3.00579 44.0238C12.8835 70.2234 33.7127 67.6464 45.3083 66.7874C55.8302 66.1431 61.8428 71.2971 82.6719 67.8611C101.783 64.8546 122.827 53.0433 126.263 45.0975C128.84 39.2993 110.587 41.8763 95.9854 34.1453C80.0951 25.5552 78.1625 31.9978 69.1437 32.4273C61.4133 32.8568 57.3334 30.2798 57.3334 30.2798" stroke="black" stroke-width="0.5" stroke-linecap="round" stroke-linejoin="round"/>
<path d="M16.9639 35.219C21.688 47.8893 37.793 62.2776 51.1065 67.2168" stroke="black" stroke-width="0.5" stroke-linecap="round" stroke-linejoin="round"/>
</g>
<defs>
<clipPath id="clip0">
<rect width="137" height="99" fill="white"/>
</clipPath>
</defs>
</svg>
