<svg width="146" height="56" viewBox="0 0 146 56" fill="none" xmlns="http://www.w3.org/2000/svg">
<g clip-path="url(#clip0)">
<path d="M18.6918 0.932617L19.7371 16.3764L27.403 0.932617H39.1383L35.9151 25.0129H29.9293L33.1151 1.21884H32.9782L20.6829 25.0129H15.2322L13.017 1.21884H12.8802L5.98585 25.0129H0L7.00631 0.932617H18.6918Z" fill="white"/>
<path d="M46.1694 25.0506H40.5693L45.7836 0.758789H51.4957L46.1694 25.0506Z" fill="white"/>
<path d="M49.7031 25.0129L65.1095 12.979L55.2036 0.932617H63.1184L69.7638 9.05894L80.1551 0.932617H88.3561L73.0492 12.9417L83.6271 25.0129H75.4012L68.1585 16.6875L57.6179 25.0129H49.7031Z" fill="white"/>
<path d="M92.476 25.0506H86.876L92.1027 0.758789H97.8023L92.476 25.0506Z" fill="white"/>
<path d="M126.611 0.969727L125.529 6.00979H116.419L112.362 25.05H106.588L110.645 6.00979H101.162L102.245 0.969727H126.611Z" fill="white"/>
<path d="M79.6579 48.6582H69.0427L65.4586 55.3783H59.6719L72.1414 31.6465H83.8144L86.1166 55.3783H80.3299L79.6579 48.6582ZM71.9049 43.2573H79.073L77.9405 32.2687H77.7663L71.9049 43.2573Z" stroke="white" stroke-miterlimit="10"/>
<path d="M110.11 31.5723C111.329 31.5723 112.412 31.7963 113.383 32.2567C114.354 32.7172 115.15 33.3394 115.772 34.111C116.407 34.895 116.842 35.8159 117.079 36.8612C117.315 37.919 117.315 39.0266 117.066 40.1964C116.855 41.1422 116.519 42.0257 116.046 42.872C115.573 43.7057 115.013 44.4898 114.354 45.2115C113.694 45.9333 112.96 46.5804 112.151 47.1405C111.33 47.7005 110.496 48.1609 109.625 48.4969L114.142 55.3166H106.053L102.817 49.6045H96.8564L95.612 55.3539H89.9248L94.9898 31.622L110.11 31.5723ZM97.9516 44.3902H106.289C106.862 44.3902 107.422 44.2782 107.957 44.0417C108.492 43.8177 108.99 43.5066 109.45 43.1084C109.911 42.7226 110.297 42.2746 110.62 41.7768C110.944 41.2791 111.155 40.7564 111.28 40.2088C111.367 39.6986 111.354 39.2257 111.242 38.7777C111.13 38.3297 110.919 37.9315 110.62 37.5954C110.321 37.247 109.948 36.9857 109.5 36.7866C109.052 36.5874 108.542 36.4879 107.969 36.4879L99.6316 36.4505L97.9516 44.3902Z" stroke="white" stroke-miterlimit="10"/>
<path d="M145.614 31.6836L144.556 36.6365H135.596L131.601 55.3781H125.914L129.909 36.6365H120.575L121.645 31.6836H145.614Z" stroke="white" stroke-miterlimit="10"/>
</g>
<defs>
<clipPath id="clip0">
<rect width="146" height="54.9304" fill="white" transform="translate(0 0.758789)"/>
</clipPath>
</defs>
</svg>
