<svg width="798" height="84" viewBox="0 0 798 84" fill="none" xmlns="http://www.w3.org/2000/svg">
<path d="M440.887 83.0805C467.395 83.0805 489.942 65.6061 510.051 33.1097C522.848 12.5696 539.302 0.919922 556.974 0.919922C579.216 0.919922 593.537 16.2484 595.669 34.6426C580.13 22.6863 553.317 32.19 553.317 56.409C553.317 75.7228 570.685 83.3871 587.747 83.3871" stroke="black" stroke-linecap="round" stroke-linejoin="round"/>
<path d="M294.331 83.0805C320.839 83.0805 343.386 65.6061 363.496 33.1097C376.293 12.5696 392.746 0.919922 410.418 0.919922C432.66 0.919922 446.981 16.2484 449.114 34.6426C433.574 22.6863 406.762 32.19 406.762 56.409C406.762 75.7228 424.129 83.3871 441.192 83.3871" stroke="black" stroke-linecap="round" stroke-linejoin="round"/>
<path d="M734.608 83.0805C761.116 83.0805 783.663 65.6061 803.773 33.1097C816.57 12.5696 833.023 0.919922 850.695 0.919922C872.938 0.919922 887.258 16.2484 889.391 34.6426C873.852 22.6863 847.039 32.19 847.039 56.409C847.039 75.7228 864.406 83.3871 881.469 83.3871" stroke="black" stroke-linecap="round" stroke-linejoin="round"/>
<path d="M587.747 83.0805C614.255 83.0805 636.802 65.6061 656.912 33.1097C669.709 12.5696 686.162 0.919922 703.834 0.919922C726.076 0.919922 740.397 16.2484 742.53 34.6426C726.99 22.6863 700.178 32.19 700.178 56.409C700.178 75.7228 717.545 83.3871 734.608 83.3871" stroke="black" stroke-linecap="round" stroke-linejoin="round"/>
<path d="M531.379 21.4596C542.043 5.51797 563.371 9.50337 563.371 9.50337" stroke="black" stroke-linecap="round" stroke-linejoin="round"/>
<path d="M678.24 21.4596C688.6 5.51797 709.928 9.50337 709.928 9.50337" stroke="black" stroke-linecap="round" stroke-linejoin="round"/>
<path d="M384.52 21.4596C395.184 5.51797 416.512 9.50337 416.512 9.50337" stroke="black" stroke-linecap="round" stroke-linejoin="round"/>
<path d="M147.47 83.0805C173.978 83.0805 196.525 65.6061 216.634 33.1097C229.431 12.5696 245.885 0.919922 263.557 0.919922C285.799 0.919922 300.119 16.2484 302.252 34.6426C286.713 22.6863 259.9 32.19 259.9 56.409C259.9 75.7228 277.268 83.3871 294.33 83.3871" stroke="black" stroke-linecap="round" stroke-linejoin="round"/>
<path d="M237.963 21.4596C248.627 5.51797 269.955 9.50337 269.955 9.50337" stroke="black" stroke-linecap="round" stroke-linejoin="round"/>
<path d="M0.609375 83.0805C27.1174 83.0805 49.6645 65.6061 69.774 33.1097C82.571 12.5696 99.0243 0.919922 116.696 0.919922C138.939 0.919922 153.259 16.2484 155.392 34.6426C139.853 22.6863 113.04 32.19 113.04 56.409C113.04 75.7228 130.407 83.3871 147.47 83.3871" stroke="black" stroke-linecap="round" stroke-linejoin="round"/>
<path d="M91.1016 21.4596C101.766 5.51797 123.094 9.50337 123.094 9.50337" stroke="black" stroke-linecap="round" stroke-linejoin="round"/>
</svg>
