<svg width="533" height="533" viewBox="0 0 533 533" fill="none" xmlns="http://www.w3.org/2000/svg">
<path d="M235 323V212L304 265.28L235 323Z" fill="#ED1958"/>
<path d="M300.54 107.401L374.558 23.7988L361.956 134.746L361.906 135.184L362.308 135.001L463.931 88.7324L407.293 184.962L407.069 185.342L407.51 185.339L519.167 184.404L428.285 249.277L427.926 249.533L428.331 249.71L530.714 294.27L421.303 316.57L420.871 316.658L421.169 316.984L496.577 399.335L387.555 375.205L387.124 375.11L387.264 375.529L422.657 481.431L332.874 415.045L332.52 414.782L332.477 415.222L321.736 526.364L266.718 429.199L266.5 428.815L266.282 429.199L211.264 526.364L200.523 415.222L200.481 414.782L200.126 415.045L110.343 481.431L145.736 375.529L145.876 375.11L145.445 375.205L36.4234 399.335L111.831 316.984L112.129 316.658L111.697 316.57L2.28578 294.27L104.669 249.71L105.074 249.533L104.715 249.277L13.8332 184.404L125.49 185.339L125.931 185.342L125.707 184.962L69.0691 88.7324L170.692 135.001L171.094 135.184L171.044 134.746L158.442 23.7988L232.46 107.401L232.753 107.732L232.886 107.311L266.5 0.830454L300.114 107.311L300.247 107.732L300.54 107.401Z" stroke="#ED1958" stroke-width="0.5"/>
</svg>
