<svg width="457" height="457" viewBox="0 0 457 457" fill="none" xmlns="http://www.w3.org/2000/svg">
<path d="M188 291V166L269 226L188 291Z" fill="#00A884"/>
<path d="M181.044 5.23916L228.5 0.251378L275.956 5.23916L321.337 19.9845L362.661 43.843L398.122 75.7719L426.169 114.376L445.577 157.967L455.498 204.642V252.358L445.577 299.033L426.169 342.624L398.122 381.228L362.661 413.157L321.337 437.015L275.956 451.761L228.5 456.749L181.044 451.761L135.663 437.015L94.3389 413.157L58.8782 381.228L30.8309 342.624L11.4227 299.033L1.50174 252.358V204.642L11.4227 157.967L30.8309 114.376L58.8782 75.7718L94.3388 43.843L135.663 19.9845L181.044 5.23916Z" stroke="#00A884" stroke-width="0.5"/>
</svg>
