<svg width="54" height="47" viewBox="0 0 54 47" fill="none" xmlns="http://www.w3.org/2000/svg">
<path d="M46.414 22.0022L53.707 14.7092C54.098 14.3182 54.098 13.6862 53.707 13.2952C53.316 12.9042 52.684 12.9042 52.293 13.2952L45 20.5882L37.707 13.2952C37.316 12.9042 36.684 12.9042 36.293 13.2952C35.902 13.6862 35.902 14.3182 36.293 14.7092L43.586 22.0022L36.293 29.2952C35.902 29.6862 35.902 30.3182 36.293 30.7092C36.488 30.9042 36.744 31.0022 37 31.0022C37.256 31.0022 37.512 30.9042 37.707 30.7092L45 23.4162L52.293 30.7092C52.488 30.9042 52.744 31.0022 53 31.0022C53.256 31.0022 53.512 30.9042 53.707 30.7092C54.098 30.3182 54.098 29.6862 53.707 29.2952L46.414 22.0022Z" fill="white"/>
<path d="M28.404 0.402069C27.429 -0.149931 26.273 -0.131931 25.314 0.446069C25.268 0.473069 25.224 0.505069 25.184 0.539069L11.634 12.0021H1C0.447 12.0021 0 12.4491 0 13.0021V32.0021C0 32.2681 0.105 32.5221 0.293 32.7091C0.481 32.8961 0.734 33.0021 1 33.0021L11.61 32.9971L25.153 45.4371C25.203 45.4831 25.257 45.5231 25.314 45.5571C25.806 45.8541 26.351 46.0031 26.896 46.0031C27.413 46.0021 27.929 45.8691 28.404 45.6011C29.403 45.0371 30 44.0071 30 42.8461V3.15807C30 1.99707 29.403 0.967069 28.404 0.402069ZM28 42.8461C28 43.2771 27.783 43.6561 27.421 43.8611C27.266 43.9481 26.873 44.1161 26.421 43.8871L13 31.5581V27.0021C13 26.4491 12.553 26.0021 12 26.0021C11.447 26.0021 11 26.4491 11 27.0021V30.9981L2 31.0021V14.0021H11V18.0021C11 18.5551 11.447 19.0021 12 19.0021C12.553 19.0021 13 18.5551 13 18.0021V13.4661L26.405 2.12607C26.865 1.88407 27.265 2.05607 27.421 2.14407C27.783 2.34907 28 2.72707 28 3.15807V42.8461Z" fill="white"/>
</svg>
