<svg width="53" height="47" viewBox="0 0 53 47" fill="none" xmlns="http://www.w3.org/2000/svg">
<path d="M28.404 0.402069C27.428 -0.149931 26.273 -0.131931 25.314 0.446069C25.268 0.473069 25.224 0.505069 25.184 0.539069L11.634 12.0021H1C0.447 12.0021 0 12.4491 0 13.0021V32.0021C0 32.2681 0.105 32.5221 0.293 32.7091C0.481 32.8961 0.734 33.0021 1 33.0021L11.61 32.9971L25.153 45.4371C25.203 45.4831 25.257 45.5231 25.314 45.5571C25.806 45.8541 26.351 46.0031 26.896 46.0031C27.413 46.0021 27.929 45.8691 28.404 45.6011C29.403 45.0371 30 44.0071 30 42.8461V3.15807C30 1.99707 29.403 0.967069 28.404 0.402069ZM28 42.8461C28 43.2771 27.783 43.6561 27.421 43.8611C27.266 43.9481 26.873 44.1161 26.421 43.8871L13 31.5581V27.0021C13 26.4491 12.553 26.0021 12 26.0021C11.447 26.0021 11 26.4491 11 27.0021V30.9981L2 31.0021V14.0021H11V18.0021C11 18.5551 11.447 19.0021 12 19.0021C12.553 19.0021 13 18.5551 13 18.0021V13.4661L26.405 2.12607C26.866 1.88407 27.265 2.05607 27.421 2.14407C27.783 2.34907 28 2.72807 28 3.15807V42.8461Z" fill="white"/>
<path d="M38.7969 4.05504C38.2739 3.87804 37.7059 4.15804 37.5279 4.68104C37.3509 5.20304 37.6309 5.77204 38.1539 5.95004C45.2549 8.36104 50.0259 15.013 50.0259 22.503C50.0259 29.986 45.2639 36.639 38.1769 39.057C37.6549 39.235 37.3749 39.803 37.5539 40.327C37.6959 40.742 38.0839 41.004 38.4999 41.004C38.6069 41.004 38.7159 40.987 38.8229 40.95C46.7189 38.257 52.0249 30.844 52.0249 22.504C52.0259 14.155 46.7099 6.74204 38.7969 4.05504Z" fill="white"/>
<path d="M43.026 22.5022C43.026 16.5302 39.017 11.2002 33.277 9.54024C32.744 9.38924 32.193 9.69224 32.039 10.2242C31.886 10.7542 32.191 11.3092 32.723 11.4622C37.612 12.8752 41.027 17.4152 41.027 22.5022C41.027 27.5892 37.612 32.1292 32.723 33.5422C32.192 33.6952 31.886 34.2502 32.039 34.7802C32.166 35.2182 32.565 35.5032 33 35.5032C33.092 35.5032 33.185 35.4902 33.277 35.4642C39.018 33.8042 43.026 28.4742 43.026 22.5022Z" fill="white"/>
</svg>
